HIERARCHY
ROOT joint_Root
{
	OFFSET 0.0 0.0 0.0
	CHANNELS 6 Xposition Yposition Zposition Zrotation Xrotation Yrotation 
	JOINT Hips
	{
		OFFSET -0.726466 93.3139 -2.00062
		CHANNELS 6 Xposition Yposition Zposition Zrotation Xrotation Yrotation 
		JOINT Spine
		{
			OFFSET 15.7357 0.0 0.0
			CHANNELS 6 Xposition Yposition Zposition Zrotation Xrotation Yrotation 
			JOINT Chest
			{
				OFFSET 8.98455 -0.406207 0.0
				CHANNELS 6 Xposition Yposition Zposition Zrotation Xrotation Yrotation 
				JOINT Neck
				{
					OFFSET 16.3773 0.0 0.0
					CHANNELS 6 Xposition Yposition Zposition Zrotation Xrotation Yrotation 
					JOINT Head
					{
						OFFSET 6.45672 0.0 0.0
						CHANNELS 6 Xposition Yposition Zposition Zrotation Xrotation Yrotation 
						End Site
						{
							OFFSET 0.0 0.0 0.0
						}
					}
				}
				JOINT Shoulder_L
				{
					OFFSET 12.9942 -0.242716 4.98039
					CHANNELS 6 Xposition Yposition Zposition Zrotation Xrotation Yrotation 
					JOINT UpperArm_L
					{
						OFFSET 5.34809 0.0 0.0
						CHANNELS 6 Xposition Yposition Zposition Zrotation Xrotation Yrotation 
						JOINT LowerArm_L
						{
							OFFSET 24.3286 1.87007e-05 0.0
							CHANNELS 6 Xposition Yposition Zposition Zrotation Xrotation Yrotation 
							JOINT Hand_L
							{
								OFFSET 22.2916 0.0 0.0
								CHANNELS 6 Xposition Yposition Zposition Zrotation Xrotation Yrotation 
								End Site
								{
									OFFSET 0.0 0.0 0.0
								}
							}
						}
					}
				}
				JOINT Shoulder_R
				{
					OFFSET 12.9945 -0.242716 -4.98039
					CHANNELS 6 Xposition Yposition Zposition Zrotation Xrotation Yrotation 
					JOINT UpperArm_R
					{
						OFFSET -5.34813 0.0 0.0
						CHANNELS 6 Xposition Yposition Zposition Zrotation Xrotation Yrotation 
						JOINT LowerArm_R
						{
							OFFSET -24.3289 0.000322201 0.0
							CHANNELS 6 Xposition Yposition Zposition Zrotation Xrotation Yrotation 
							JOINT Hand_R
							{
								OFFSET -22.2915 -0.000108084 0.0
								CHANNELS 6 Xposition Yposition Zposition Zrotation Xrotation Yrotation 
								End Site
								{
									OFFSET 0.0 0.0 0.0
								}
							}
						}
					}
				}
			}
		}
		JOINT UpperLeg_L
		{
			OFFSET -2.19248 -6.46944 0.0
			CHANNELS 6 Xposition Yposition Zposition Zrotation Xrotation Yrotation 
			JOINT LowerLeg_L
			{
				OFFSET 39.0811 0.0 -1.23785e-05
				CHANNELS 6 Xposition Yposition Zposition Zrotation Xrotation Yrotation 
				JOINT Foot_L
				{
					OFFSET 40.9854 0.0 -1.26872e-05
					CHANNELS 6 Xposition Yposition Zposition Zrotation Xrotation Yrotation 
					JOINT Toes_L
					{
						OFFSET 11.7543 0.0 0.0
						CHANNELS 6 Xposition Yposition Zposition Zrotation Xrotation Yrotation 
						End Site
						{
							OFFSET 0.0 0.0 0.0
						}
					}
				}
			}
		}
		JOINT UpperLeg_R
		{
			OFFSET -2.19251 6.46944 0.0
			CHANNELS 6 Xposition Yposition Zposition Zrotation Xrotation Yrotation 
			JOINT LowerLeg_R
			{
				OFFSET -39.0811 -0.00228153 -0.0401928
				CHANNELS 6 Xposition Yposition Zposition Zrotation Xrotation Yrotation 
				JOINT Foot_R
				{
					OFFSET -40.9854 0.0 0.0
					CHANNELS 6 Xposition Yposition Zposition Zrotation Xrotation Yrotation 
					JOINT Toes_R
					{
						OFFSET -11.7543 0.0 0.0
						CHANNELS 6 Xposition Yposition Zposition Zrotation Xrotation Yrotation 
						End Site
						{
							OFFSET 0.0 0.0 0.0
						}
					}
				}
			}
		}
	}
}
MOTION
Frames:	4
Frame Time:	0.0333333
0.000000 0.000000 0.000000 0.000000 0.000000 -0.000000 -0.539097 92.261500 -0.802650 87.834700 -1.647710 5.049180 15.735700 0.000005 -0.000001 96.387100 85.610700 -97.367200 8.984550 -0.406207 -0.000000 0.967842 1.034310 -1.967260 16.377300 -0.000001 -0.000001 4.161200 -2.473860 1.072590 6.456720 -0.000001 -0.000000 1.525070 -2.370410 -3.813190 12.994200 -0.242716 4.980390 -89.939300 -0.192851 -72.532500 5.348090 -0.000007 -0.000001 -67.204100 38.287300 -13.008300 24.328600 0.000019 0.000005 0.616970 1.462720 -22.871300 22.291600 -0.000001 0.000005 5.633690 5.484650 -5.927230 12.994500 -0.242716 -4.980390 89.108500 2.786370 -72.250300 -5.348130 -0.000001 -0.000004 -74.814900 -24.752600 -84.492400 -24.328900 0.000322 -0.000009 15.829800 -1.852780 -96.506100 -22.291500 -0.000108 -0.000004 24.845400 5.361230 -1.717130 -2.192480 -6.469440 -0.000000 -175.480000 -5.545590 -1.788420 39.081100 -0.000007 -0.000012 -0.111019 0.257531 23.320400 40.985400 -0.000006 -0.000013 -0.424749 1.833290 -66.662300 11.754300 -0.000000 0.000003 -0.000051 -0.000573 -16.599800 -2.192510 6.469440 -0.000001 179.840000 12.282600 -179.847000 -39.081100 -0.002282 -0.040193 0.009421 -0.016481 20.310500 -40.985400 0.000008 0.000006 4.817080 6.950280 -66.098100 -11.754300 -0.000006 -0.000006 -0.008476 -0.091876 -20.314900
0.000000 0.000000 0.000000 0.000000 0.000000 -0.000000 -0.543497 92.255600 -0.798679 87.830200 -1.710130 5.062520 15.735700 0.000005 -0.000001 96.201600 85.608900 -97.177800 8.984550 -0.406207 -0.000000 0.974342 1.006190 -1.959360 16.377300 -0.000001 -0.000001 4.213410 -2.504490 1.076600 6.456720 -0.000001 -0.000000 1.467650 -2.369420 -3.833040 12.994200 -0.242716 4.980390 -89.951200 -0.154743 -72.508800 5.348090 -0.000007 -0.000001 -67.475200 38.462600 -12.658900 24.328600 0.000019 0.000005 0.627253 1.494390 -22.771400 22.291600 -0.000001 0.000005 5.580780 5.486120 -5.984520 12.994500 -0.242716 -4.980390 89.120400 2.741020 -72.200000 -5.348130 -0.000001 -0.000004 -74.916100 -24.729500 -84.559500 -24.328900 0.000322 -0.000009 15.685500 -1.809470 -96.416300 -22.291500 -0.000108 -0.000004 24.741500 5.361870 -1.736810 -2.192480 -6.469440 -0.000000 -175.464000 -5.634430 -1.783750 39.081100 -0.000007 -0.000012 -0.111352 0.257810 23.360300 40.985400 -0.000006 -0.000013 -0.431938 1.810720 -66.686600 11.754300 -0.000000 0.000003 -0.000038 -0.000445 -16.594900 -2.192510 6.469440 -0.000001 179.831000 12.248900 -179.847000 -39.081100 -0.002282 -0.040193 0.006281 -0.007985 20.339200 -40.985400 0.000008 0.000006 4.755320 7.037380 -66.105400 -11.754300 -0.000006 -0.000006 -0.008681 -0.093504 -20.381400
0.000000 0.000000 0.000000 0.000000 0.000000 -0.000000 -0.562894 92.261300 -0.800333 87.804200 -1.777200 5.043920 15.735700 0.000005 -0.000001 96.101500 85.615000 -97.065400 8.984550 -0.406207 -0.000000 0.963582 0.988993 -1.934520 16.377300 -0.000001 -0.000001 4.227080 -2.543130 1.081120 6.456720 -0.000001 -0.000000 1.526790 -2.402330 -3.868930 12.994200 -0.242716 4.980390 -89.952900 -0.149461 -72.505700 5.348090 -0.000007 -0.000001 -67.796800 38.529300 -12.273200 24.328600 0.000019 0.000005 0.727434 1.742410 -22.663000 22.291600 -0.000001 0.000005 5.562910 5.485970 -5.978450 12.994500 -0.242716 -4.980390 89.120600 2.728010 -72.124800 -5.348130 -0.000001 -0.000004 -74.878100 -24.703000 -84.697100 -24.328900 0.000322 -0.000009 15.635600 -1.762530 -96.272200 -22.291500 -0.000108 -0.000004 24.829700 5.360950 -1.708550 -2.192480 -6.469440 -0.000000 -175.425000 -5.648470 -1.778870 39.081100 -0.000007 -0.000012 -0.111469 0.258419 23.333000 40.985400 -0.000006 -0.000013 -0.448077 1.801460 -66.677500 11.754300 -0.000000 0.000003 -0.000049 -0.000560 -16.599300 -2.192510 6.469440 -0.000001 179.902000 12.147100 -179.859000 -39.081100 -0.002282 -0.040193 0.008838 -0.014921 20.293100 -40.985400 0.000008 0.000006 4.804190 6.962840 -66.073600 -11.754300 -0.000006 -0.000006 -0.008437 -0.091560 -20.301900
0.000000 0.000000 0.000000 0.000000 0.000000 -0.000000 -0.563962 92.256000 -0.790191 87.804600 -1.816990 5.110970 15.735700 0.000005 -0.000001 96.014000 85.594300 -96.971000 8.984550 -0.406207 -0.000000 1.005940 0.979247 -1.921010 16.377300 -0.000001 -0.000001 4.330100 -2.579690 1.100600 6.456720 -0.000001 -0.000000 1.524060 -2.424970 -3.899550 12.994200 -0.242716 4.980390 -89.949800 -0.159461 -72.507700 5.348090 -0.000007 -0.000001 -68.114100 38.519400 -11.913600 24.328600 0.000019 0.000005 0.738707 1.784820 -22.487400 22.291600 -0.000001 0.000005 5.472150 5.486390 -5.994780 12.994500 -0.242716 -4.980390 89.122000 2.711190 -72.048100 -5.348130 -0.000001 -0.000004 -74.855800 -24.704500 -84.866300 -24.328900 0.000322 -0.000009 15.695800 -1.727190 -96.122800 -22.291500 -0.000108 -0.000004 24.856500 5.361270 -1.718580 -2.192480 -6.469440 -0.000000 -175.412000 -5.659550 -1.700930 39.081100 -0.000007 -0.000012 -0.112325 0.260161 23.352500 40.985400 -0.000006 -0.000013 -0.458571 1.780230 -66.704400 11.754300 -0.000000 0.000003 -0.000046 -0.000530 -16.598200 -2.192510 6.469440 -0.000001 179.888000 12.078200 -179.799000 -39.081100 -0.002282 -0.040193 0.007369 -0.010933 20.318500 -40.985400 0.000008 0.000006 4.745380 6.960210 -66.081200 -11.754300 -0.000006 -0.000006 -0.008413 -0.091371 -20.294200
